<svg width="561" height="116" viewBox="0 0 561 116" fill="none" xmlns="http://www.w3.org/2000/svg">
<g clip-path="url(#clip0_16_2)">
<rect width="561" height="116" fill="white"/>
<path d="M32.405 25.24V23H41.525L50.965 40.92L60.605 23H69.205V25.24H65.565V48.76H69.205V51H57.605V48.76H61.245V30.92C61.2717 30.7867 61.285 30.48 61.285 30C61.3117 29.4933 61.3383 28.96 61.365 28.4C61.3917 27.7333 61.4183 27.0133 61.445 26.24H61.085L59.365 30.52L51.165 45H48.725L40.725 30.52L38.965 25.84H38.565V28.32C38.565 28.9333 38.565 29.52 38.565 30.08C38.5917 30.6133 38.605 30.8933 38.605 30.92V48.76H42.005V51H32.405V48.76H36.045V25.24H32.405Z" fill="#0588DF"/>
<path d="M71.78 25.24V23H80.9L90.34 40.92L99.98 23H108.58V25.24H104.94V48.76H108.58V51H96.98V48.76H100.62V30.92C100.647 30.7867 100.66 30.48 100.66 30C100.687 29.4933 100.713 28.96 100.74 28.4C100.767 27.7333 100.793 27.0133 100.82 26.24H100.46L98.74 30.52L90.54 45H88.1L80.1 30.52L78.34 25.84H77.94V28.32C77.94 28.9333 77.94 29.52 77.94 30.08C77.9667 30.6133 77.98 30.8933 77.98 30.92V48.76H81.38V51H71.78V48.76H75.42V25.24H71.78Z" fill="black"/>
<path d="M151.536 13.088V10.4H162.48L173.808 31.904L185.376 10.4H195.696V13.088H191.328V41.312H195.696V44H181.776V41.312H186.144V19.904C186.176 19.744 186.192 19.376 186.192 18.8C186.224 18.192 186.256 17.552 186.288 16.88C186.32 16.08 186.352 15.216 186.384 14.288H185.952L183.888 19.424L174.048 36.8H171.12L161.52 19.424L159.408 13.808H158.928V16.784C158.928 17.52 158.928 18.224 158.928 18.896C158.96 19.536 158.976 19.872 158.976 19.904V41.312H163.056V44H151.536V41.312H155.904V13.088H151.536ZM199.41 31.424C199.41 29.312 199.714 27.44 200.322 25.808C200.93 24.176 201.778 22.816 202.866 21.728C203.986 20.608 205.33 19.76 206.898 19.184C208.498 18.608 210.258 18.32 212.178 18.32C214.418 18.32 216.338 18.64 217.938 19.28C219.57 19.888 220.898 20.768 221.922 21.92C222.946 23.04 223.698 24.416 224.178 26.048C224.69 27.648 224.946 29.44 224.946 31.424C224.946 33.536 224.642 35.408 224.034 37.04C223.458 38.64 222.61 40 221.49 41.12C220.402 42.208 219.058 43.04 217.458 43.616C215.89 44.192 214.13 44.48 212.178 44.48C210.002 44.48 208.114 44.176 206.514 43.568C204.914 42.928 203.586 42.048 202.53 40.928C201.474 39.776 200.69 38.4 200.178 36.8C199.666 35.2 199.41 33.408 199.41 31.424ZM204.834 31.424C204.834 32.96 204.978 34.384 205.266 35.696C205.554 37.008 206.018 38.144 206.658 39.104C207.33 40.064 208.178 40.832 209.202 41.408C210.258 41.952 211.538 42.224 213.042 42.224C214.93 42.224 216.482 41.36 217.698 39.632C218.914 37.904 219.522 35.168 219.522 31.424C219.522 29.888 219.378 28.464 219.09 27.152C218.802 25.808 218.338 24.656 217.698 23.696C217.09 22.704 216.29 21.936 215.298 21.392C214.338 20.848 213.154 20.576 211.746 20.576C209.634 20.576 207.954 21.44 206.706 23.168C205.458 24.896 204.834 27.648 204.834 31.424ZM258.357 44H246.597V41.6H249.765V29.552C249.765 27.024 249.381 25.056 248.613 23.648C247.845 22.24 246.437 21.536 244.389 21.536C243.493 21.536 242.661 21.68 241.893 21.968C241.157 22.256 240.485 22.64 239.877 23.12C239.301 23.6 238.789 24.16 238.341 24.8C237.925 25.44 237.605 26.112 237.381 26.816V41.6H240.549V44H228.789V41.6H232.341V21.2H228.789V18.8H237.381V23.792H237.429C238.165 22.256 239.237 20.96 240.645 19.904C242.085 18.848 243.813 18.32 245.829 18.32C247.269 18.32 248.549 18.48 249.669 18.8C250.789 19.088 251.717 19.632 252.453 20.432C253.221 21.232 253.797 22.304 254.181 23.648C254.597 24.992 254.805 26.704 254.805 28.784V41.6H258.357V44ZM281.538 37.328C281.538 38.064 281.554 38.816 281.586 39.584C281.618 40.32 281.666 40.992 281.73 41.6H284.898V44H277.362L276.882 39.44H276.642C276.482 40.08 276.178 40.704 275.73 41.312C275.314 41.92 274.77 42.464 274.098 42.944C273.458 43.424 272.69 43.808 271.794 44.096C270.898 44.384 269.906 44.528 268.818 44.528C267.73 44.528 266.722 44.368 265.794 44.048C264.898 43.728 264.114 43.28 263.442 42.704C262.77 42.128 262.242 41.44 261.858 40.64C261.506 39.808 261.33 38.88 261.33 37.856C261.33 36.288 261.65 34.992 262.29 33.968C262.962 32.944 263.938 32.144 265.218 31.568C266.498 30.96 268.098 30.528 270.018 30.272C271.938 30.016 274.178 29.872 276.738 29.84C276.802 29.328 276.834 28.848 276.834 28.4C276.834 27.92 276.834 27.456 276.834 27.008C276.834 25.024 276.498 23.52 275.826 22.496C275.154 21.44 273.954 20.912 272.226 20.912C271.586 20.912 270.898 20.944 270.162 21.008C269.426 21.072 268.754 21.264 268.146 21.584V26H263.826V20.672C264.978 20.064 266.338 19.52 267.906 19.04C269.474 18.56 271.314 18.32 273.426 18.32C275.25 18.32 276.706 18.56 277.794 19.04C278.914 19.488 279.762 20.096 280.338 20.864C280.946 21.6 281.33 22.448 281.49 23.408C281.682 24.336 281.778 25.264 281.778 26.192C281.778 28.208 281.73 30.144 281.634 32C281.57 33.824 281.538 35.6 281.538 37.328ZM271.026 41.312C271.794 41.312 272.482 41.2 273.09 40.976C273.698 40.72 274.226 40.416 274.674 40.064C275.154 39.68 275.554 39.264 275.874 38.816C276.226 38.368 276.514 37.936 276.738 37.52V31.808C274.658 31.808 272.962 31.952 271.65 32.24C270.37 32.496 269.362 32.848 268.626 33.296C267.89 33.744 267.378 34.288 267.09 34.928C266.834 35.536 266.706 36.192 266.706 36.896C266.706 38.336 267.09 39.44 267.858 40.208C268.626 40.944 269.682 41.312 271.026 41.312ZM302.53 38.288C302.53 37.424 302.21 36.672 301.57 36.032C300.93 35.36 300.13 34.752 299.17 34.208C298.21 33.632 297.17 33.072 296.05 32.528C294.93 31.952 293.89 31.312 292.93 30.608C291.97 29.872 291.17 29.024 290.53 28.064C289.89 27.072 289.57 25.888 289.57 24.512C289.57 23.584 289.794 22.752 290.242 22.016C290.69 21.248 291.282 20.592 292.018 20.048C292.786 19.504 293.682 19.088 294.706 18.8C295.73 18.48 296.818 18.32 297.97 18.32C298.93 18.32 299.778 18.352 300.514 18.416C301.25 18.48 301.922 18.576 302.53 18.704C303.138 18.8 303.714 18.928 304.258 19.088C304.802 19.248 305.362 19.424 305.938 19.616V26.096H302.866V22.304L301.954 21.248C301.538 21.152 301.09 21.072 300.61 21.008C300.13 20.944 299.618 20.912 299.074 20.912C297.538 20.912 296.386 21.216 295.618 21.824C294.882 22.4 294.514 23.136 294.514 24.032C294.514 24.896 294.834 25.648 295.474 26.288C296.114 26.928 296.914 27.536 297.874 28.112C298.834 28.656 299.874 29.2 300.994 29.744C302.114 30.288 303.154 30.912 304.114 31.616C305.074 32.288 305.874 33.072 306.514 33.968C307.154 34.864 307.474 35.936 307.474 37.184C307.474 38.336 307.202 39.36 306.658 40.256C306.146 41.152 305.426 41.92 304.498 42.56C303.602 43.168 302.53 43.648 301.282 44C300.066 44.32 298.77 44.48 297.394 44.48C295.858 44.48 294.354 44.288 292.882 43.904C291.442 43.488 290.306 43.008 289.474 42.464V36.176H292.546V39.824L293.506 40.832C293.922 41.152 294.418 41.408 294.994 41.6C295.57 41.792 296.322 41.888 297.25 41.888C298.786 41.888 300.05 41.568 301.042 40.928C302.034 40.288 302.53 39.408 302.53 38.288ZM340.754 44H328.994V41.6H332.162V29.792C332.162 27.136 331.81 25.104 331.106 23.696C330.402 22.256 329.154 21.536 327.362 21.536C326.402 21.536 325.506 21.696 324.674 22.016C323.842 22.336 323.106 22.752 322.466 23.264C321.826 23.776 321.266 24.352 320.786 24.992C320.338 25.6 320.002 26.208 319.778 26.816V41.6H322.946V44H311.186V41.6H314.738V10.4H310.658V8H319.778V23.888H319.826C320.562 22.32 321.714 21.008 323.282 19.952C324.882 18.864 326.786 18.32 328.994 18.32C330.242 18.32 331.378 18.48 332.402 18.8C333.426 19.088 334.29 19.632 334.994 20.432C335.698 21.232 336.242 22.304 336.626 23.648C337.01 24.992 337.202 26.704 337.202 28.784V41.6H340.754V44Z" fill="#0588DF"/>
<path d="M356.38 13.088V10.4H367.324L378.652 31.904L390.22 10.4H400.54V13.088H396.172V41.312H400.54V44H386.62V41.312H390.988V19.904C391.02 19.744 391.036 19.376 391.036 18.8C391.068 18.192 391.1 17.552 391.132 16.88C391.164 16.08 391.196 15.216 391.228 14.288H390.796L388.732 19.424L378.892 36.8H375.964L366.364 19.424L364.252 13.808H363.772V16.784C363.772 17.52 363.772 18.224 363.772 18.896C363.804 19.536 363.82 19.872 363.82 19.904V41.312H367.9V44H356.38V41.312H360.748V13.088H356.38ZM426.046 40.688C425.214 41.872 424.03 42.816 422.494 43.52C420.99 44.192 419.23 44.528 417.214 44.528C415.102 44.528 413.23 44.224 411.598 43.616C409.998 42.976 408.654 42.096 407.566 40.976C406.478 39.824 405.646 38.448 405.07 36.848C404.526 35.216 404.254 33.408 404.254 31.424C404.254 27.136 405.326 23.888 407.47 21.68C409.614 19.44 412.622 18.32 416.494 18.32C417.774 18.32 419.022 18.48 420.238 18.8C421.486 19.12 422.59 19.648 423.55 20.384C424.51 21.12 425.278 22.096 425.854 23.312C426.462 24.528 426.766 26.032 426.766 27.824C426.766 28.368 426.734 28.944 426.67 29.552C426.606 30.16 426.51 30.8 426.382 31.472H409.678C409.678 32.88 409.854 34.16 410.206 35.312C410.59 36.464 411.15 37.456 411.886 38.288C412.654 39.12 413.598 39.776 414.718 40.256C415.838 40.704 417.166 40.928 418.702 40.928C419.95 40.928 421.102 40.72 422.158 40.304C423.246 39.888 424.11 39.408 424.75 38.864L426.046 40.688ZM416.302 20.576C415.31 20.576 414.43 20.72 413.662 21.008C412.926 21.296 412.286 21.776 411.742 22.448C411.198 23.12 410.766 24.016 410.446 25.136C410.126 26.224 409.918 27.584 409.822 29.216H421.39C421.422 28.928 421.438 28.64 421.438 28.352C421.47 28.032 421.486 27.744 421.486 27.488C421.486 25.376 421.054 23.696 420.19 22.448C419.358 21.2 418.062 20.576 416.302 20.576ZM449.345 39.008C449.153 39.744 448.833 40.448 448.385 41.12C447.969 41.792 447.441 42.384 446.801 42.896C446.193 43.408 445.489 43.808 444.689 44.096C443.889 44.384 443.025 44.528 442.097 44.528C438.545 44.528 435.873 43.488 434.081 41.408C432.321 39.296 431.441 36.016 431.441 31.568C431.441 29.424 431.729 27.536 432.305 25.904C432.913 24.24 433.761 22.848 434.849 21.728C435.937 20.608 437.249 19.76 438.785 19.184C440.321 18.608 442.033 18.32 443.921 18.32C444.593 18.32 445.169 18.336 445.649 18.368C446.129 18.4 446.577 18.448 446.993 18.512C447.409 18.576 447.809 18.672 448.193 18.8C448.577 18.896 448.993 19.008 449.441 19.136V10.4H445.361V8H454.481V41.6H457.745V44H449.969L449.537 39.008H449.345ZM443.201 41.312C444.961 41.312 446.337 40.816 447.329 39.824C448.321 38.832 449.025 37.456 449.441 35.696V21.536C448.801 21.216 448.081 20.976 447.281 20.816C446.513 20.656 445.489 20.576 444.209 20.576C443.025 20.576 441.969 20.832 441.041 21.344C440.145 21.856 439.377 22.592 438.737 23.552C438.129 24.512 437.665 25.68 437.345 27.056C437.025 28.4 436.865 29.904 436.865 31.568C436.865 32.912 436.977 34.176 437.201 35.36C437.457 36.544 437.841 37.584 438.353 38.48C438.865 39.344 439.521 40.032 440.321 40.544C441.121 41.056 442.081 41.312 443.201 41.312ZM473.585 44H461.441V41.6H464.993V21.2H461.441V18.8H470.033V41.6H473.585V44ZM463.937 11.024C463.937 10.096 464.257 9.36 464.897 8.816C465.569 8.272 466.417 8 467.441 8C468.529 8 469.377 8.272 469.985 8.816C470.625 9.36 470.945 10.096 470.945 11.024C470.945 11.952 470.625 12.688 469.985 13.232C469.377 13.776 468.529 14.048 467.441 14.048C466.417 14.048 465.569 13.776 464.897 13.232C464.257 12.688 463.937 11.952 463.937 11.024ZM498.683 40.784C498.011 41.712 496.939 42.576 495.467 43.376C494.027 44.144 492.315 44.528 490.331 44.528C488.219 44.528 486.363 44.224 484.763 43.616C483.195 42.976 481.883 42.096 480.827 40.976C479.771 39.824 478.987 38.448 478.475 36.848C477.963 35.216 477.707 33.408 477.707 31.424C477.707 27.168 478.827 23.92 481.067 21.68C483.339 19.44 486.411 18.32 490.283 18.32C492.043 18.32 493.499 18.432 494.651 18.656C495.803 18.88 496.859 19.232 497.819 19.712V25.952H493.499V21.344C493.019 21.056 492.059 20.912 490.619 20.912C489.403 20.912 488.331 21.088 487.403 21.44C486.475 21.792 485.691 22.368 485.051 23.168C484.411 23.968 483.931 25.04 483.611 26.384C483.291 27.728 483.131 29.376 483.131 31.328C483.131 32.608 483.307 33.84 483.659 35.024C484.011 36.176 484.539 37.2 485.243 38.096C485.947 38.96 486.827 39.648 487.883 40.16C488.971 40.672 490.235 40.928 491.675 40.928C492.443 40.928 493.115 40.848 493.691 40.688C494.299 40.528 494.827 40.368 495.275 40.208C495.723 40.016 496.123 39.808 496.475 39.584C496.827 39.36 497.163 39.12 497.483 38.864L498.683 40.784ZM522.944 37.328C522.944 38.064 522.96 38.816 522.992 39.584C523.024 40.32 523.072 40.992 523.136 41.6H526.304V44H518.768L518.288 39.44H518.048C517.888 40.08 517.584 40.704 517.136 41.312C516.72 41.92 516.176 42.464 515.504 42.944C514.864 43.424 514.096 43.808 513.2 44.096C512.304 44.384 511.312 44.528 510.224 44.528C509.136 44.528 508.128 44.368 507.2 44.048C506.304 43.728 505.52 43.28 504.848 42.704C504.176 42.128 503.648 41.44 503.264 40.64C502.912 39.808 502.736 38.88 502.736 37.856C502.736 36.288 503.056 34.992 503.696 33.968C504.368 32.944 505.344 32.144 506.624 31.568C507.904 30.96 509.504 30.528 511.424 30.272C513.344 30.016 515.584 29.872 518.144 29.84C518.208 29.328 518.24 28.848 518.24 28.4C518.24 27.92 518.24 27.456 518.24 27.008C518.24 25.024 517.904 23.52 517.232 22.496C516.56 21.44 515.36 20.912 513.632 20.912C512.992 20.912 512.304 20.944 511.568 21.008C510.832 21.072 510.16 21.264 509.552 21.584V26H505.232V20.672C506.384 20.064 507.744 19.52 509.312 19.04C510.88 18.56 512.72 18.32 514.832 18.32C516.656 18.32 518.112 18.56 519.2 19.04C520.32 19.488 521.168 20.096 521.744 20.864C522.352 21.6 522.736 22.448 522.896 23.408C523.088 24.336 523.184 25.264 523.184 26.192C523.184 28.208 523.136 30.144 523.04 32C522.976 33.824 522.944 35.6 522.944 37.328ZM512.432 41.312C513.2 41.312 513.888 41.2 514.496 40.976C515.104 40.72 515.632 40.416 516.08 40.064C516.56 39.68 516.96 39.264 517.28 38.816C517.632 38.368 517.92 37.936 518.144 37.52V31.808C516.064 31.808 514.368 31.952 513.056 32.24C511.776 32.496 510.768 32.848 510.032 33.296C509.296 33.744 508.784 34.288 508.496 34.928C508.24 35.536 508.112 36.192 508.112 36.896C508.112 38.336 508.496 39.44 509.264 40.208C510.032 40.944 511.088 41.312 512.432 41.312ZM542.304 44H530.16V41.6H533.712V10.4H529.632V8H538.752V41.6H542.304V44Z" fill="black"/>
<path d="M174.384 105H159.12V102.312H164.064V74.088H155.472L154.512 75.144V81.336H151.056V71.4H182.448V81.336H178.992V75.144L178.032 74.088H169.44V102.312H174.384V105ZM204.14 101.688C203.308 102.872 202.124 103.816 200.588 104.52C199.084 105.192 197.324 105.528 195.308 105.528C193.196 105.528 191.324 105.224 189.692 104.616C188.092 103.976 186.748 103.096 185.66 101.976C184.572 100.824 183.74 99.448 183.164 97.848C182.62 96.216 182.348 94.408 182.348 92.424C182.348 88.136 183.42 84.888 185.564 82.68C187.708 80.44 190.716 79.32 194.588 79.32C195.868 79.32 197.116 79.48 198.332 79.8C199.58 80.12 200.684 80.648 201.644 81.384C202.604 82.12 203.372 83.096 203.948 84.312C204.556 85.528 204.859 87.032 204.859 88.824C204.859 89.368 204.828 89.944 204.764 90.552C204.7 91.16 204.604 91.8 204.476 92.472H187.772C187.772 93.88 187.948 95.16 188.3 96.312C188.684 97.464 189.244 98.456 189.98 99.288C190.748 100.12 191.692 100.776 192.812 101.256C193.932 101.704 195.26 101.928 196.796 101.928C198.044 101.928 199.196 101.72 200.252 101.304C201.34 100.888 202.204 100.408 202.844 99.864L204.14 101.688ZM194.396 81.576C193.404 81.576 192.524 81.72 191.756 82.008C191.02 82.296 190.38 82.776 189.836 83.448C189.292 84.12 188.86 85.016 188.54 86.136C188.22 87.224 188.012 88.584 187.916 90.216H199.484C199.516 89.928 199.532 89.64 199.532 89.352C199.564 89.032 199.58 88.744 199.58 88.488C199.58 86.376 199.148 84.696 198.284 83.448C197.452 82.2 196.156 81.576 194.396 81.576ZM230.511 101.784C229.839 102.712 228.767 103.576 227.295 104.376C225.855 105.144 224.143 105.528 222.159 105.528C220.047 105.528 218.191 105.224 216.591 104.616C215.023 103.976 213.711 103.096 212.655 101.976C211.599 100.824 210.815 99.448 210.303 97.848C209.791 96.216 209.535 94.408 209.535 92.424C209.535 88.168 210.655 84.92 212.895 82.68C215.167 80.44 218.239 79.32 222.111 79.32C223.871 79.32 225.327 79.432 226.479 79.656C227.631 79.88 228.687 80.232 229.647 80.712V86.952H225.327V82.344C224.847 82.056 223.887 81.912 222.447 81.912C221.231 81.912 220.159 82.088 219.231 82.44C218.303 82.792 217.519 83.368 216.879 84.168C216.239 84.968 215.759 86.04 215.439 87.384C215.119 88.728 214.959 90.376 214.959 92.328C214.959 93.608 215.135 94.84 215.487 96.024C215.839 97.176 216.367 98.2 217.071 99.096C217.775 99.96 218.655 100.648 219.711 101.16C220.799 101.672 222.063 101.928 223.503 101.928C224.271 101.928 224.943 101.848 225.519 101.688C226.127 101.528 226.655 101.368 227.103 101.208C227.551 101.016 227.951 100.808 228.303 100.584C228.655 100.36 228.991 100.12 229.311 99.864L230.511 101.784ZM263.316 105H251.556V102.6H254.724V90.792C254.724 88.136 254.372 86.104 253.668 84.696C252.964 83.256 251.716 82.536 249.924 82.536C248.964 82.536 248.068 82.696 247.236 83.016C246.404 83.336 245.668 83.752 245.028 84.264C244.388 84.776 243.828 85.352 243.348 85.992C242.9 86.6 242.564 87.208 242.34 87.816V102.6H245.508V105H233.748V102.6H237.3V71.4H233.22V69H242.34V84.888H242.388C243.124 83.32 244.276 82.008 245.844 80.952C247.444 79.864 249.348 79.32 251.556 79.32C252.804 79.32 253.94 79.48 254.964 79.8C255.988 80.088 256.852 80.632 257.556 81.432C258.26 82.232 258.804 83.304 259.188 84.648C259.572 85.992 259.764 87.704 259.764 89.784V102.6H263.316V105ZM295.482 105H283.722V102.6H286.89V90.552C286.89 88.024 286.506 86.056 285.738 84.648C284.97 83.24 283.562 82.536 281.514 82.536C280.618 82.536 279.786 82.68 279.018 82.968C278.282 83.256 277.61 83.64 277.002 84.12C276.426 84.6 275.914 85.16 275.466 85.8C275.05 86.44 274.73 87.112 274.506 87.816V102.6H277.674V105H265.914V102.6H269.466V82.2H265.914V79.8H274.506V84.792H274.554C275.29 83.256 276.362 81.96 277.77 80.904C279.21 79.848 280.938 79.32 282.954 79.32C284.394 79.32 285.674 79.48 286.794 79.8C287.914 80.088 288.842 80.632 289.578 81.432C290.346 82.232 290.922 83.304 291.306 84.648C291.722 85.992 291.93 87.704 291.93 89.784V102.6H295.482V105ZM298.551 92.424C298.551 90.312 298.855 88.44 299.463 86.808C300.071 85.176 300.919 83.816 302.007 82.728C303.127 81.608 304.471 80.76 306.039 80.184C307.639 79.608 309.399 79.32 311.319 79.32C313.559 79.32 315.479 79.64 317.079 80.28C318.711 80.888 320.039 81.768 321.063 82.92C322.087 84.04 322.839 85.416 323.319 87.048C323.831 88.648 324.087 90.44 324.087 92.424C324.087 94.536 323.783 96.408 323.175 98.04C322.599 99.64 321.751 101 320.631 102.12C319.543 103.208 318.199 104.04 316.599 104.616C315.031 105.192 313.271 105.48 311.319 105.48C309.143 105.48 307.255 105.176 305.655 104.568C304.055 103.928 302.727 103.048 301.671 101.928C300.615 100.776 299.831 99.4 299.319 97.8C298.807 96.2 298.551 94.408 298.551 92.424ZM303.975 92.424C303.975 93.96 304.119 95.384 304.407 96.696C304.695 98.008 305.159 99.144 305.799 100.104C306.471 101.064 307.319 101.832 308.343 102.408C309.399 102.952 310.679 103.224 312.183 103.224C314.071 103.224 315.623 102.36 316.839 100.632C318.055 98.904 318.663 96.168 318.663 92.424C318.663 90.888 318.519 89.464 318.231 88.152C317.943 86.808 317.479 85.656 316.839 84.696C316.231 83.704 315.431 82.936 314.439 82.392C313.479 81.848 312.295 81.576 310.887 81.576C308.775 81.576 307.095 82.44 305.847 84.168C304.599 85.896 303.975 88.648 303.975 92.424ZM340.554 105H328.41V102.6H331.962V71.4H327.882V69H337.002V102.6H340.554V105ZM344.676 92.424C344.676 90.312 344.98 88.44 345.588 86.808C346.196 85.176 347.044 83.816 348.132 82.728C349.252 81.608 350.596 80.76 352.164 80.184C353.764 79.608 355.524 79.32 357.444 79.32C359.684 79.32 361.604 79.64 363.204 80.28C364.836 80.888 366.164 81.768 367.188 82.92C368.212 84.04 368.964 85.416 369.444 87.048C369.956 88.648 370.212 90.44 370.212 92.424C370.212 94.536 369.908 96.408 369.3 98.04C368.724 99.64 367.876 101 366.756 102.12C365.668 103.208 364.324 104.04 362.724 104.616C361.156 105.192 359.396 105.48 357.444 105.48C355.268 105.48 353.38 105.176 351.78 104.568C350.18 103.928 348.852 103.048 347.796 101.928C346.74 100.776 345.956 99.4 345.444 97.8C344.932 96.2 344.676 94.408 344.676 92.424ZM350.1 92.424C350.1 93.96 350.244 95.384 350.532 96.696C350.82 98.008 351.284 99.144 351.924 100.104C352.596 101.064 353.444 101.832 354.468 102.408C355.524 102.952 356.804 103.224 358.308 103.224C360.196 103.224 361.748 102.36 362.964 100.632C364.18 98.904 364.788 96.168 364.788 92.424C364.788 90.888 364.644 89.464 364.356 88.152C364.068 86.808 363.604 85.656 362.964 84.696C362.356 83.704 361.556 82.936 360.564 82.392C359.604 81.848 358.42 81.576 357.012 81.576C354.9 81.576 353.22 82.44 351.972 84.168C350.724 85.896 350.1 88.648 350.1 92.424ZM400.311 79.8V82.872H394.695C395.143 83.32 395.559 83.944 395.943 84.744C396.327 85.544 396.519 86.504 396.519 87.624C396.519 89.992 395.591 91.896 393.735 93.336C391.879 94.776 389.207 95.496 385.719 95.496C385.079 95.496 384.535 95.496 384.087 95.496C383.639 95.464 383.159 95.384 382.647 95.256C382.487 95.576 382.279 95.928 382.023 96.312C381.799 96.664 381.687 97.048 381.687 97.464C381.687 98.136 382.103 98.648 382.935 99C383.767 99.32 384.807 99.624 386.055 99.912C387.303 100.168 388.663 100.44 390.135 100.728C391.607 100.984 392.967 101.384 394.215 101.928C395.495 102.44 396.551 103.128 397.383 103.992C398.215 104.856 398.631 105.992 398.631 107.4C398.631 108.616 398.311 109.672 397.671 110.568C397.063 111.496 396.183 112.248 395.031 112.824C393.911 113.432 392.567 113.88 390.999 114.168C389.431 114.456 387.719 114.6 385.863 114.6C381.863 114.6 378.871 114.072 376.887 113.016C374.903 111.96 373.911 110.504 373.911 108.648C373.911 106.856 374.519 105.48 375.735 104.52C376.951 103.56 378.663 102.76 380.871 102.12C380.039 101.768 379.367 101.384 378.855 100.968C378.343 100.552 378.087 99.928 378.087 99.096C378.087 98.712 378.183 98.328 378.375 97.944C378.567 97.528 378.823 97.144 379.143 96.792C379.463 96.408 379.815 96.072 380.199 95.784C380.583 95.464 380.951 95.208 381.303 95.016C379.255 94.472 377.671 93.544 376.551 92.232C375.463 90.92 374.919 89.352 374.919 87.528C374.919 85.192 375.831 83.32 377.655 81.912C379.479 80.504 382.167 79.8 385.719 79.8H400.311ZM393.591 108.552C393.591 107.496 393.207 106.648 392.439 106.008C391.703 105.4 390.759 104.904 389.607 104.52C388.487 104.104 387.271 103.768 385.959 103.512C384.647 103.256 383.415 102.952 382.263 102.6C380.919 103.4 380.023 104.2 379.575 105C379.159 105.832 378.951 106.712 378.951 107.64C378.951 108.984 379.623 110.104 380.967 111C382.311 111.896 384.263 112.344 386.823 112.344C388.135 112.344 389.223 112.232 390.087 112.008C390.951 111.816 391.639 111.544 392.151 111.192C392.695 110.84 393.063 110.44 393.255 109.992C393.479 109.544 393.591 109.064 393.591 108.552ZM379.959 87.528C379.959 88.36 380.055 89.128 380.247 89.832C380.439 90.536 380.743 91.144 381.159 91.656C381.607 92.136 382.199 92.52 382.935 92.808C383.671 93.096 384.599 93.24 385.719 93.24C387.767 93.24 389.239 92.728 390.135 91.704C391.031 90.648 391.479 89.256 391.479 87.528C391.479 86.856 391.447 86.296 391.383 85.848C391.351 85.4 391.287 85 391.191 84.648C391.127 84.296 391.047 83.992 390.951 83.736C390.855 83.448 390.759 83.16 390.663 82.872C389.927 82.552 389.143 82.344 388.311 82.248C387.479 82.12 386.615 82.056 385.719 82.056C383.543 82.056 382.039 82.504 381.207 83.4C380.375 84.296 379.959 85.672 379.959 87.528ZM403.037 82.2H400.205V79.8H412.589V82.2H408.557L415.085 98.136L416.045 101.784H416.285L417.197 98.088L422.333 82.2H419.405V79.8H428.621V82.2H425.549L417.677 105C417.229 106.312 416.733 107.512 416.189 108.6C415.677 109.72 415.165 110.696 414.653 111.528C414.173 112.392 413.693 113.08 413.213 113.592C412.765 114.136 412.381 114.472 412.061 114.6H407.213V110.28H412.109C412.333 110.024 412.541 109.768 412.733 109.512C412.925 109.256 413.117 108.936 413.309 108.552C413.501 108.168 413.709 107.688 413.933 107.112C414.157 106.568 414.413 105.864 414.701 105H412.925L403.037 82.2ZM442.77 74.088V71.4H457.698V74.088H452.514V102.312H465.282L466.242 101.256V94.632H469.698V105H442.77V102.312H447.138V74.088H442.77ZM492.756 98.328C492.756 99.064 492.772 99.816 492.804 100.584C492.836 101.32 492.884 101.992 492.948 102.6H496.116V105H488.58L488.1 100.44H487.86C487.7 101.08 487.396 101.704 486.948 102.312C486.532 102.92 485.988 103.464 485.316 103.944C484.676 104.424 483.908 104.808 483.012 105.096C482.116 105.384 481.124 105.528 480.036 105.528C478.948 105.528 477.94 105.368 477.012 105.048C476.116 104.728 475.332 104.28 474.66 103.704C473.988 103.128 473.46 102.44 473.076 101.64C472.724 100.808 472.548 99.88 472.548 98.856C472.548 97.288 472.868 95.992 473.508 94.968C474.18 93.944 475.156 93.144 476.436 92.568C477.716 91.96 479.316 91.528 481.236 91.272C483.156 91.016 485.396 90.872 487.956 90.84C488.02 90.328 488.052 89.848 488.052 89.4C488.052 88.92 488.052 88.456 488.052 88.008C488.052 86.024 487.716 84.52 487.044 83.496C486.372 82.44 485.172 81.912 483.444 81.912C482.804 81.912 482.116 81.944 481.38 82.008C480.644 82.072 479.972 82.264 479.364 82.584V87H475.044V81.672C476.196 81.064 477.556 80.52 479.124 80.04C480.692 79.56 482.532 79.32 484.644 79.32C486.468 79.32 487.924 79.56 489.012 80.04C490.132 80.488 490.98 81.096 491.556 81.864C492.164 82.6 492.548 83.448 492.708 84.408C492.9 85.336 492.996 86.264 492.996 87.192C492.996 89.208 492.948 91.144 492.852 93C492.788 94.824 492.756 96.6 492.756 98.328ZM482.244 102.312C483.012 102.312 483.7 102.2 484.308 101.976C484.916 101.72 485.444 101.416 485.892 101.064C486.372 100.68 486.772 100.264 487.092 99.816C487.444 99.368 487.732 98.936 487.956 98.52V92.808C485.876 92.808 484.18 92.952 482.868 93.24C481.588 93.496 480.58 93.848 479.844 94.296C479.108 94.744 478.596 95.288 478.308 95.928C478.052 96.536 477.924 97.192 477.924 97.896C477.924 99.336 478.308 100.44 479.076 101.208C479.844 101.944 480.9 102.312 482.244 102.312ZM501.893 71.4H497.812V69H506.933V84.744H507.077C507.685 83.048 508.709 81.72 510.148 80.76C511.589 79.8 513.205 79.32 514.997 79.32C518.261 79.32 520.757 80.344 522.484 82.392C524.245 84.44 525.125 87.624 525.125 91.944C525.125 96.392 523.909 99.768 521.477 102.072C519.077 104.344 515.637 105.48 511.157 105.48C510.261 105.48 509.349 105.416 508.421 105.288C507.525 105.192 506.645 105.064 505.781 104.904C504.949 104.712 504.197 104.504 503.525 104.28C502.853 104.056 502.309 103.816 501.893 103.56V71.4ZM513.413 82.536C511.685 82.536 510.293 83.064 509.237 84.12C508.213 85.144 507.445 86.472 506.933 88.104V102.072C507.573 102.424 508.341 102.712 509.237 102.936C510.165 103.128 511.157 103.224 512.213 103.224C514.581 103.224 516.421 102.264 517.733 100.344C519.045 98.424 519.701 95.624 519.701 91.944C519.701 90.632 519.589 89.4 519.365 88.248C519.141 87.096 518.773 86.104 518.261 85.272C517.749 84.408 517.093 83.736 516.293 83.256C515.525 82.776 514.565 82.536 513.413 82.536Z" fill="black"/>
<path d="M8.68182 115.909V-0.454552H28.3182V4.45454H14.0455V111H28.3182V115.909H8.68182ZM134.057 -0.454552V115.909H114.42V111H128.693V4.45454H114.42V-0.454552H134.057Z" fill="black"/>
<path d="M57.3552 93H44.6352V90.76H48.7552V67.24H41.5952L40.7952 68.12V73.28H37.9152V65H64.0752V73.28H61.1952V68.12L60.3952 67.24H53.2352V90.76H57.3552V93Z" fill="black"/>
<path d="M79.5925 67.24V65H92.0325V67.24H87.7125V90.76H98.3525L99.1525 89.88V84.36H102.033V93H79.5925V90.76H83.2325V67.24H79.5925Z" fill="black"/>
</g>
<defs>
<clipPath id="clip0_16_2">
<rect width="561" height="116" fill="white"/>
</clipPath>
</defs>
</svg>
