<svg width="143" height="117" viewBox="0 0 143 117" fill="none" xmlns="http://www.w3.org/2000/svg">
<g clip-path="url(#clip0_16_2)">
<rect width="143" height="117" fill="white"/>
<path d="M32.405 26.24V24H41.525L50.965 41.92L60.605 24H69.205V26.24H65.565V49.76H69.205V52H57.605V49.76H61.245V31.92C61.2717 31.7867 61.285 31.48 61.285 31C61.3117 30.4933 61.3383 29.96 61.365 29.4C61.3917 28.7333 61.4183 28.0133 61.445 27.24H61.085L59.365 31.52L51.165 46H48.725L40.725 31.52L38.965 26.84H38.565V29.32C38.565 29.9333 38.565 30.52 38.565 31.08C38.5917 31.6133 38.605 31.8933 38.605 31.92V49.76H42.005V52H32.405V49.76H36.045V26.24H32.405Z" fill="#0588DF"/>
<path d="M71.78 26.24V24H80.9L90.34 41.92L99.98 24H108.58V26.24H104.94V49.76H108.58V52H96.98V49.76H100.62V31.92C100.647 31.7867 100.66 31.48 100.66 31C100.687 30.4933 100.713 29.96 100.74 29.4C100.767 28.7333 100.793 28.0133 100.82 27.24H100.46L98.74 31.52L90.54 46H88.1L80.1 31.52L78.34 26.84H77.94V29.32C77.94 29.9333 77.94 30.52 77.94 31.08C77.9667 31.6133 77.98 31.8933 77.98 31.92V49.76H81.38V52H71.78V49.76H75.42V26.24H71.78Z" fill="black"/>
<path d="M8.68182 116.909V0.545448H28.3182V5.45454H14.0455V112H28.3182V116.909H8.68182ZM134.057 0.545448V116.909H114.42V112H128.693V5.45454H114.42V0.545448H134.057Z" fill="black"/>
<path d="M57.3552 94H44.6352V91.76H48.7552V68.24H41.5952L40.7952 69.12V74.28H37.9152V66H64.0752V74.28H61.1952V69.12L60.3952 68.24H53.2352V91.76H57.3552V94Z" fill="black"/>
<path d="M79.5925 68.24V66H92.0325V68.24H87.7125V91.76H98.3525L99.1525 90.88V85.36H102.033V94H79.5925V91.76H83.2325V68.24H79.5925Z" fill="black"/>
</g>
<defs>
<clipPath id="clip0_16_2">
<rect width="143" height="117" fill="white"/>
</clipPath>
</defs>
</svg>
